<svg xmlns="http://www.w3.org/2000/svg" width="56.006" height="54.326" viewBox="0 0 56.006 54.326"><g transform="translate(-7.997 -992.036)"><g transform="translate(196 -1)"><path d="M32,4.674a2.192,2.192,0,0,0-1.553.639l-15,14.949a2.194,2.194,0,0,0,3.105,3.1L21,20.92v8.453L5.2,37.355a2.194,2.194,0,0,0,1.988,3.912L8,40.857V58.5a.5.5,0,0,0,.5.5H55.5a.5.5,0,0,0,.5-.5V40.857l.811.41A2.194,2.194,0,0,0,58.8,37.355L43,29.377V20.922l2.449,2.439a2.195,2.195,0,0,0,3.107-3.1l-15-14.949A2.192,2.192,0,0,0,32,4.674Zm0,.992a1.2,1.2,0,0,1,.848.355l15,14.949a1.173,1.173,0,0,1,0,1.684,1.188,1.188,0,0,1-1.693,0L32.357,8.9a.5.5,0,0,0-.707,0l-13.8,13.754a1.19,1.19,0,0,1-1.7,0,1.173,1.173,0,0,1,0-1.684l15-14.949A1.2,1.2,0,0,1,32,5.666Zm0,4.295,10,9.963V58H38V44a6,6,0,1,0-12,0V58H22V19.924ZM30.5,15a.5.5,0,0,0-.5.5V19H26.5a.5.5,0,0,0-.5.5v3a.5.5,0,0,0,.5.5H30v6.5a.5.5,0,0,0,.5.5h3a.5.5,0,0,0,.5-.5V23h3.5a.5.5,0,0,0,.5-.5v-3a.5.5,0,0,0-.5-.5H34V15.5a.5.5,0,0,0-.5-.5Zm.5,1h2v3.5a.5.5,0,0,0,.5.5H37v2H33.5a.5.5,0,0,0-.5.5V29H31V22.5a.5.5,0,0,0-.5-.5H27V20h3.5a.5.5,0,0,0,.5-.5ZM21,30.494V33.17L6.736,40.375a1.19,1.19,0,0,1-1.611-.527,1.172,1.172,0,0,1,.523-1.6Zm22,0,15.348,7.75a1.172,1.172,0,0,1,.523,1.6,1.19,1.19,0,0,1-1.611.527L43,33.174ZM21,34.291V58H9V40.354Zm22,0,12,6.059V58H43ZM31.49,39.025H31.5V58H27V44A4.976,4.976,0,0,1,31.49,39.025Zm1.014,0A4.975,4.975,0,0,1,37,44V58H32.5ZM15,40.992a3.961,3.961,0,0,0-4,3.916V51.5a.5.5,0,0,0,.5.5h7a.5.5,0,0,0,.5-.5V44.908A3.961,3.961,0,0,0,15,40.992Zm34.008,0a3.961,3.961,0,0,0-4,3.916V51.5a.5.5,0,0,0,.5.5h7a.5.5,0,0,0,.5-.5V44.908A3.961,3.961,0,0,0,49,40.992ZM14.5,42.041V46H12V44.908A2.915,2.915,0,0,1,14.5,42.041Zm1,0A2.915,2.915,0,0,1,18,44.908V46H15.5Zm33.008,0V46H46V44.908A2.915,2.915,0,0,1,48.5,42.041Zm1,0A2.915,2.915,0,0,1,52,44.908V46H49.5ZM29.5,46.861a.5.5,0,0,0-.492.508v3.264a.5.5,0,1,0,1,0V47.369a.5.5,0,0,0-.508-.508Zm5,0a.5.5,0,0,0-.492.508v3.264a.5.5,0,1,0,1,0V47.369a.5.5,0,0,0-.508-.508ZM12,47h2.5v4H12Zm3.5,0H18v4H15.5ZM46,47h2.5v4H46Zm3.5,0H52v4H49.5Z" transform="translate(-192 988.362)" fill="#f3bc3f"/></g></g></svg>